#!OML:ASF E:\emotionWalksFemale\Project 1\Capture day 1\Session 1\Female1.ASF
:FULLY-SPECIFIED
:DEGREES
261
root 8.51373 15.4797 23.0372 181.78 9.65353 180.641
lowerback 8.29232 1.22057 0.804006
upperback -4.11086 1.82534 0.403951
thorax -9.01088 0.875751 -0.317716
lowerneck -5.35042 -0.994545 -6.31658
upperneck 2.9393 -1.13999 7.08197
head 1.99302 -0.45657 3.41645
rclavicle -4.83544e-014 -1.11319e-014
rhumerus -44.7775 1.28583 -82.6368
rradius 37.7964
rwrist 20.9033
rhand -3.34324 -53.3163
rfingers 7.12502
rthumb 22.3845 -82.0394
lclavicle -4.83544e-014 -1.11319e-014
lhumerus -49.2265 -10.8739 90.3411
lradius 45.7419
lwrist -2.36249
lhand -1.31661 -35.8079
lfingers 7.12502
lthumb 24.3287 -7.33197
rfemur -4.36329 16.6335 24.5884
rtibia 19.6202
rfoot -16.0533 -22.3288
rtoes -7.86197
lfemur -6.75604 -11.7194 -23.9267
ltibia 24.1957
lfoot -22.5337 20.2899
ltoes -29.8231
262
root 8.51115 15.4767 23.0346 181.825 9.77624 180.608
lowerback 8.02026 1.2095 0.810425
upperback -3.87338 1.7941 0.374555
thorax -8.59183 0.859524 -0.33671
lowerneck -5.50365 -1.01121 -6.16835
upperneck 2.63358 -1.14685 6.98611
head 1.917 -0.45756 3.35121
rclavicle 3.41661e-014 4.57205e-015
rhumerus -44.3313 1.2061 -82.4991
rradius 37.8751
rwrist 20.7167
rhand -3.18794 -53.8903
rfingers 7.12502
rthumb 22.5336 -82.5954
lclavicle 3.41661e-014 4.57205e-015
lhumerus -48.913 -10.5627 89.8522
lradius 45.3849
lwrist -2.86237
lhand -1.82023 -36.0083
lfingers 7.12502
lthumb 23.8458 -7.46845
rfemur -4.53536 16.6069 24.5114
rtibia 19.823
rfoot -16.2768 -22.1879
rtoes -7.86179
lfemur -6.81112 -11.6595 -23.9698
ltibia 24.2113
lfoot -22.6285 20.3234
ltoes -29.9523
263
root 8.50844 15.4739 23.0317 181.841 9.84451 180.542
lowerback 8.12242 1.18553 0.729875
upperback -3.84353 1.75191 0.383251
thorax -8.62229 0.842655 -0.277829
lowerneck -5.69182 -0.986161 -6.22299
upperneck 2.60412 -1.0997 7.05912
head 1.94038 -0.42909 3.38985
rclavicle 6.73383e-015 1.59028e-015
rhumerus -44.1953 1.15545 -82.2235
rradius 37.9193
rwrist 20.5835
rhand -2.91923 -53.5322
rfingers 7.12502
rthumb 22.7915 -82.2058
lclavicle 6.73383e-015 1.59028e-015
lhumerus -48.8489 -10.1008 89.4448
lradius 44.9464
lwrist -3.40327
lhand -1.73898 -35.9782
lfingers 7.12502
lthumb 23.9237 -7.44849
rfemur -4.67664 16.4759 24.402
rtibia 20.0277
rfoot -16.4888 -22.0148
rtoes -8.04901
lfemur -6.83957 -11.5612 -24.0494
ltibia 24.2243
lfoot -22.7119 20.3084
ltoes -30.0875
264
root 8.50603 15.4722 23.0272 181.91 10.0068 180.518
lowerback 8.1375 1.17408 0.717961
upperback -3.83243 1.73296 0.366308
thorax -8.619 0.833216 -0.286309
lowerneck -5.77957 -0.910249 -6.26603
upperneck 2.56877 -0.991514 7.22216
head 1.93999 -0.368706 3.45937
rclavicle -1.49089e-016 -4.47266e-015
rhumerus -44.1054 1.10356 -82.0361
rradius 38.0191
rwrist 20.2307
rhand -2.78335 -52.8611
rfingers 7.12502
rthumb 22.9219 -81.5185
lclavicle -1.49089e-016 -4.47266e-015
lhumerus -48.8222 -9.58536 88.9627
lradius 44.5651
lwrist -3.73944
lhand -1.01604 -35.382
lfingers 7.12502
lthumb 24.6168 -6.94504
rfemur -4.84751 16.3457 24.3177
rtibia 20.1846
rfoot -16.4969 -21.8183
rtoes -8.51778
lfemur -6.90277 -11.3397 -24.0802
ltibia 24.2454
lfoot -22.9483 20.1636
ltoes -29.3963
265
root 8.50343 15.473 23.0203 181.99 10.299 180.572
lowerback 8.27372 1.19668 0.773545
upperback -3.9189 1.77605 0.378802
thorax -8.79127 0.85099 -0.315708
lowerneck -5.60444 -0.848254 -6.28082
upperneck 2.45749 -0.91237 7.27108
head 1.86598 -0.331176 3.47943
rclavicle -3.91357e-014 -3.08116e-015
rhumerus -44.2272 1.14246 -81.915
rradius 38.2017
rwrist 19.9179
rhand -2.66134 -52.7366
rfingers 7.12502
rthumb 23.0389 -81.3795
lclavicle -3.91357e-014 -3.08116e-015
lhumerus -48.945 -9.04937 88.52
lradius 44.1113
lwrist -4.10999
lhand -0.665618 -34.8717
lfingers 7.12502
lthumb 24.9527 -6.48091
rfemur -5.01115 16.2675 24.3096
rtibia 20.3182
rfoot -16.5246 -21.587
rtoes -8.78035
lfemur -6.93171 -11.0834 -24.0462
ltibia 24.2793
lfoot -23.4066 19.9777
ltoes -27.8069
266
root 8.50171 15.4733 23.0135 182.032 10.5244 180.606
lowerback 8.51045 1.22611 0.82254
upperback -4.03805 1.82983 0.387936
thorax -9.05859 0.873414 -0.349991
lowerneck -5.3821 -0.848956 -6.25547
upperneck 2.36156 -0.921159 7.19258
head 1.79272 -0.34193 3.44387
rclavicle -6.9264e-015 7.05686e-015
rhumerus -44.4809 1.20817 -81.7854
rradius 38.3937
rwrist 19.7475
rhand -2.67412 -52.7314
rfingers 7.12502
rthumb 23.0267 -81.3759
lclavicle -6.9264e-015 7.05686e-015
lhumerus -49.047 -8.43393 88.074
lradius 43.5273
lwrist -4.57476
lhand -0.234334 -34.3827
lfingers 7.12502
lthumb 25.3659 -6.04993
rfemur -5.12243 16.2006 24.2962
rtibia 20.4366
rfoot -16.6298 -21.3701
rtoes -9.17439
lfemur -6.94605 -10.905 -24.0348
ltibia 24.3518
lfoot -23.7035 19.9432
ltoes -27.0026
267
root 8.50003 15.4709 23.0102 182.087 10.6454 180.558
lowerback 8.5287 1.24904 0.815702
upperback -4.00568 1.85425 0.348394
thorax -9.03259 0.883702 -0.391918
lowerneck -5.39371 -0.867858 -6.18266
upperneck 2.2338 -0.942381 7.11292
head 1.75232 -0.353434 3.39974
rclavicle -8.69683e-015 4.37326e-015
rhumerus -44.474 1.22904 -81.6935
rradius 38.5522
rwrist 19.4295
rhand -2.76876 -52.989
rfingers 7.12502
rthumb 22.9359 -81.6447
lclavicle -8.69683e-015 4.37326e-015
lhumerus -48.76 -7.82119 87.517
lradius 42.7839
lwrist -5.15158
lhand 0.636127 -33.6431
lfingers 7.12502
lthumb 26.1995 -5.43133
rfemur -5.28719 16.0918 24.1981
rtibia 20.5575
rfoot -16.5286 -21.2793
rtoes -10.099
lfemur -7.06434 -10.7671 -24.0774
ltibia 24.4617
lfoot -23.7517 19.8711
ltoes -26.967
268
root 8.4971 15.4678 23.0087 182.189 10.6697 180.566
lowerback 8.53117 1.24415 0.860684
upperback -3.95626 1.84955 0.336667
thorax -8.97838 0.878002 -0.428031
lowerneck -5.44587 -0.870723 -6.16174
upperneck 2.02511 -0.933067 7.06215
head 1.69166 -0.34859 3.37624
rclavicle -7.15004e-015 6.55989e-015
rhumerus -44.3596 1.19563 -81.5433
rradius 38.646
rwrist 19.1669
rhand -2.6266 -53.7305
rfingers 7.12502
rthumb 23.0723 -82.3693
lclavicle -7.15004e-015 6.55989e-015
lhumerus -48.4074 -7.29294 86.979
lradius 41.9574
lwrist -5.78638
lhand 2.16861 -32.7554
lfingers 7.12502
lthumb 27.6658 -4.76996
rfemur -5.52523 15.8796 24.1509
rtibia 20.724
rfoot -16.3537 -21.2496
rtoes -10.5469
lfemur -7.24365 -10.6895 -24.045
ltibia 24.5666
lfoot -23.8154 19.7247
ltoes -26.4638
269
root 8.49841 15.4692 23.0109 182.575 11.503 180.663
lowerback 8.23696 1.49765 0.790013
upperback -3.94006 2.18303 0.382172
thorax -8.78892 1.04852 -0.384456
lowerneck -5.44601 -0.853259 -6.19842
upperneck 1.77404 -0.893985 7.03024
head 1.60658 -0.329887 3.37071
rclavicle 3.67068e-014 1.05356e-014
rhumerus -44.1494 1.1964 -81.3682
rradius 38.7002
rwrist 19.045
rhand -2.68309 -53.6945
rfingers 7.12502
rthumb 23.0181 -82.34
lclavicle 3.67068e-014 1.05356e-014
lhumerus -48.1199 -6.76082 86.487
lradius 41.245
lwrist -6.33777
lhand 3.95622 -31.7649
lfingers 7.12502
lthumb 29.3739 -4.06611
rfemur -6.21328 16.0341 24.0336
rtibia 20.9527
rfoot -16.1191 -20.6774
rtoes -10.6255
lfemur -7.64995 -10.0673 -23.919
ltibia 24.6767
lfoot -24.0753 19.8831
ltoes -25.6934
270
root 8.49241 15.4639 23.0033 182.422 10.6758 180.6
lowerback 8.30471 1.17219 1.01214
upperback -3.76402 1.75841 0.316649
thorax -8.63227 0.825462 -0.510818
lowerneck -5.486 -0.832168 -6.14164
upperneck 1.5945 -0.856654 7.02924
head 1.55174 -0.308979 3.3589
rclavicle -1.04548e-014 1.39149e-015
rhumerus -43.9493 1.22314 -81.2845
rradius 38.7358
rwrist 18.9578
rhand -2.56549 -53.8647
rfingers 7.12502
rthumb 23.1309 -82.4961
lclavicle -1.04548e-014 1.39149e-015
lhumerus -47.9004 -6.2694 85.9515
lradius 40.6557
lwrist -6.88888
lhand 4.89808 -31.2484
lfingers 7.12502
lthumb 30.2728 -3.7109
rfemur -6.03744 15.5445 24.0726
rtibia 21.1877
rfoot -16.4318 -20.9722
rtoes -10.2717
lfemur -7.61609 -10.3258 -23.9681
ltibia 24.8047
lfoot -23.7889 19.6709
ltoes -27.0995
271
root 8.49278 15.4623 23.0035 182.51 10.9955 180.609
lowerback 8.48356 1.28035 0.996897
upperback -3.78476 1.89997 0.274651
thorax -8.75663 0.892015 -0.573864
lowerneck -5.42811 -0.83171 -5.94692
upperneck 1.39719 -0.858195 6.96357
head 1.47385 -0.309361 3.29599
rclavicle -4.77704e-015 -6.65929e-015
rhumerus -43.9878 1.10884 -81.128
rradius 38.6811
rwrist 19.1119
rhand -2.26215 -54.6717
rfingers 7.12502
rthumb 23.4219 -83.2663
lclavicle -4.77704e-015 -6.65929e-015
lhumerus -47.7385 -5.82575 85.363
lradius 39.9862
lwrist -7.58849
lhand 5.18997 -31.4046
lfingers 7.12502
lthumb 30.5512 -3.91852
rfemur -6.34737 15.3849 24.0092
rtibia 21.4598
rfoot -16.5562 -20.5325
rtoes -10.8193
lfemur -7.76782 -9.9694 -23.9558
ltibia 24.9527
lfoot -23.7728 19.7275
ltoes -27.4363
272
root 8.49097 15.4607 23.0045 182.547 11.1296 180.594
lowerback 8.83737 1.337 0.92558
upperback -3.86971 1.9746 0.286399
thorax -9.05856 0.929667 -0.544709
lowerneck -5.30903 -0.803731 -5.94946
upperneck 1.2575 -0.819485 7.00216
head 1.40466 -0.290862 3.30897
rclavicle -2.29783e-014 -5.1684e-015
rhumerus -44.175 0.963369 -80.7706
rradius 38.4759
rwrist 19.609
rhand -2.71039 -54.0855
rfingers 7.12502
rthumb 22.9919 -82.7343
lclavicle -2.29783e-014 -5.1684e-015
lhumerus -47.6219 -5.28539 84.8999
lradius 39.2541
lwrist -8.35369
lhand 5.18578 -31.5052
lfingers 7.12502
lthumb 30.5472 -4.0184
rfemur -6.6103 15.0966 23.9361
rtibia 21.7696
rfoot -16.6972 -20.2137
rtoes -10.9522
lfemur -7.9107 -9.76024 -23.9636
ltibia 25.1395
lfoot -23.9875 19.5382
ltoes -26.9259
273
root 8.48902 15.4545 23.0043 182.603 11.3045 180.573
lowerback 8.86519 1.34459 0.952914
upperback -3.77264 1.97953 0.243509
thorax -8.96644 0.928282 -0.605267
lowerneck -5.31157 -0.714401 -6.12095
upperneck 1.0265 -0.677727 7.32193
head 1.32559 -0.212079 3.45557
rclavicle 2.11706e-014 -1.59028e-015
rhumerus -43.9784 0.789239 -80.5719
rradius 38.1796
rwrist 20.104
rhand -3.41957 -52.9304
rfingers 7.12502
rthumb 22.3112 -81.6623
lclavicle 2.11706e-014 -1.59028e-015
lhumerus -47.1874 -4.69621 84.3172
lradius 38.4762
lwrist -9.1556
lhand 5.06014 -31.5559
lfingers 7.12502
lthumb 30.4273 -4.04687
rfemur -6.88615 15.045 23.859
rtibia 22.1124
rfoot -16.8693 -20.085
rtoes -10.6971
lfemur -8.09346 -9.48644 -23.9726
ltibia 25.3665
lfoot -24.0977 19.3838
ltoes -27.0394
274
root 8.48777 15.4464 23.0047 182.692 11.4196 180.582
lowerback 8.92157 1.33182 0.982926
upperback -3.6901 1.96187 0.235519
thorax -8.90856 0.917 -0.627699
lowerneck -5.4388 -0.672842 -6.12212
upperneck 0.855339 -0.603642 7.30154
head 1.28717 -0.172032 3.44997
rclavicle -1.13991e-014 -7.45443e-015
rhumerus -43.7468 0.659313 -80.3994
rradius 37.9768
rwrist 20.3491
rhand -3.72288 -52.4317
rfingers 7.12502
rthumb 22.0201 -81.1981
lclavicle -1.13991e-014 -7.45443e-015
lhumerus -46.8747 -4.07012 83.7147
lradius 37.8198
lwrist -10.1279
lhand 5.48666 -31.298
lfingers 7.12502
lthumb 30.834 -3.86506
rfemur -7.20793 14.9709 23.8279
rtibia 22.4839
rfoot -17.0571 -20.054
rtoes -10.6712
lfemur -8.31531 -9.12375 -23.9315
ltibia 25.5832
lfoot -24.1017 19.2747
ltoes -27.7034
